<?xml version="1.0" encoding="utf-8"?>
<!-- Generator: Adobe Illustrator 24.0.2, SVG Export Plug-In . SVG Version: 6.00 Build 0)  -->
<svg version="1.1" id="Capa_1" xmlns="http://www.w3.org/2000/svg" xmlns:xlink="http://www.w3.org/1999/xlink" x="0px" y="0px"
	 viewBox="0 0 512 512" style="enable-background:new 0 0 512 512;" xml:space="preserve">
<style type="text/css">
	.st0{fill:#5972A2;}
</style>
<g>
	<g>
		<path class="st0" d="M386.7,304.4c-35.6,0-64.5,29-64.5,64.5s29,64.5,64.5,64.5c35.6,0,64.5-29,64.5-64.5S422.3,304.4,386.7,304.4
			z M386.7,401.2c-17.8,0-32.3-14.5-32.3-32.3c0-17.8,14.5-32.3,32.3-32.3c17.8,0,32.3,14.5,32.3,32.3
			C419,386.7,404.5,401.2,386.7,401.2z"/>
	</g>
</g>
<g>
	<g>
		<path class="st0" d="M166.2,304.4c-35.6,0-64.5,29-64.5,64.5s29,64.5,64.5,64.5s64.5-29,64.5-64.5S201.8,304.4,166.2,304.4z
			 M166.2,401.2c-17.8,0-32.3-14.5-32.3-32.3c0-17.8,14.5-32.3,32.3-32.3c17.8,0,32.3,14.5,32.3,32.3
			C198.5,386.7,184,401.2,166.2,401.2z"/>
	</g>
</g>
<g>
	<g>
		<path class="st0" d="M430.1,119.7c-2.7-5.4-8.3-8.9-14.4-8.9h-85v32.3h75l43.9,87.4l28.8-14.5L430.1,119.7z"/>
	</g>
</g>
<g>
	<g>
		<rect x="216.2" y="353.3" class="st0" width="122.1" height="32.3"/>
	</g>
</g>
<g>
	<g>
		<path class="st0" d="M117.8,353.3H61.8c-8.9,0-16.1,7.2-16.1,16.1c0,8.9,7.2,16.1,16.1,16.1h55.9c8.9,0,16.1-7.2,16.1-16.1
			C133.9,360.6,126.7,353.3,117.8,353.3z"/>
	</g>
</g>
<g>
	<g>
		<path class="st0" d="M508.6,254.7l-31.7-40.9c-3-3.9-7.8-6.2-12.7-6.2H346.9V94.7c0-8.9-7.2-16.1-16.1-16.1H61.8
			c-8.9,0-16.1,7.2-16.1,16.1s7.2,16.1,16.1,16.1h252.8v112.9c0,8.9,7.2,16.1,16.1,16.1h125.5l23.5,30.3v83.2h-44.6
			c-8.9,0-16.1,7.2-16.1,16.1c0,8.9,7.2,16.1,16.1,16.1h60.8c8.9,0,16.1-7.2,16.1-16.1V264.6C512,261,510.8,257.5,508.6,254.7z"/>
	</g>
</g>
<g>
	<g>
		<path class="st0" d="M116.7,271.6H42.5c-8.9,0-16.1,7.2-16.1,16.1c0,8.9,7.2,16.1,16.1,16.1h74.2c8.9,0,16.1-7.2,16.1-16.1
			C132.8,278.8,125.6,271.6,116.7,271.6z"/>
	</g>
</g>
<g>
	<g>
		<path class="st0" d="M153.8,208.1H16.1c-8.9,0-16.1,7.2-16.1,16.1s7.2,16.1,16.1,16.1h137.7c8.9,0,16.1-7.2,16.1-16.1
			S162.7,208.1,153.8,208.1z"/>
	</g>
</g>
<g>
	<g>
		<path class="st0" d="M180.2,144.7H42.5c-8.9,0-16.1,7.2-16.1,16.1c0,8.9,7.2,16.1,16.1,16.1h137.7c8.9,0,16.1-7.2,16.1-16.1
			C196.3,151.9,189.1,144.7,180.2,144.7z"/>
	</g>
</g>
</svg>
