<?xml version="1.0" encoding="utf-8"?>
<!-- Generator: Adobe Illustrator 24.0.2, SVG Export Plug-In . SVG Version: 6.00 Build 0)  -->
<svg version="1.1" id="Capa_1" xmlns="http://www.w3.org/2000/svg" xmlns:xlink="http://www.w3.org/1999/xlink" x="0px" y="0px"
	 viewBox="0 0 464 464" style="enable-background:new 0 0 464 464;" xml:space="preserve">
<style type="text/css">
	.st0{fill:#5972A2;}
</style>
<path class="st0" d="M196,163.5c5.5,0,10-4.5,10-10V107c0-5.5-4.5-10-10-10c-5.5,0-10,4.5-10,10v46.5
	C186.1,159,190.5,163.5,196,163.5z"/>
<path class="st0" d="M196,91.6c5.5,0,10-4.5,10-10v-6.6c0-5.5-4.5-10-10-10c-5.5,0-10,4.5-10,10v6.6C186.1,87.1,190.5,91.6,196,91.6
	z"/>
<path class="st0" d="M401.1,137.9V41.6c0-23-18.6-41.6-41.6-41.6h-260C77.4,0,59.4,17.8,59.4,39.6l-1.5,251.6h-40
	c-5.5,0-10,4.5-10,10v43.2c0.1,28.1,22.2,51.1,50.2,52.4v0.1h224.4v-0.1c1,0.1,2,0.1,3,0.1c29,0,52.5-23.5,52.5-52.5V147.8h53.2
	c2.6,0,5.2-1,7.1-2.8C400.1,143.1,401.1,140.6,401.1,137.9z M27.8,344.5v-33.2h205.1v33.2c0,11.8,4,23.3,11.4,32.5H60.4
	C42.4,377.1,27.8,362.5,27.8,344.5z M318,41.6v302.9c0,18-14.6,32.5-32.5,32.5s-32.5-14.6-32.5-32.5v-43.2c0-5.5-4.5-10-10-10h-165
	l1.5-251.6c0.1-11,9.1-19.9,20.2-19.8h224.6C320.1,26.5,318,34,318,41.6z M381.2,128h-43.2V41.6c0-12,9.7-21.7,21.7-21.7
	c12,0,21.7,9.7,21.7,21.7V128H381.2z"/>
<path class="st0" d="M275.3,210.7H116.1c-5.5,0-10,4.5-10,10c0,5.5,4.5,10,10,10h159.3c5.5,0,10-4.5,9.9-10
	C285.3,215.1,280.8,210.7,275.3,210.7z"/>
<path class="st0" d="M212.4,251.5h-96.3c-5.5,0-10,4.5-10,10c0,5.5,4.5,10,10,10h96.3c5.5,0,10-4.5,10-10
	C222.4,256,217.9,251.5,212.4,251.5z"/>
<path class="st0" d="M417.1,180c-21.5,0-38.9,17.4-38.9,38.9v173c0,0.4,0,0.7,0.1,1.1v0.2c0,0.3,0.1,0.5,0.1,0.8
	c0,0.1,0,0.2,0.1,0.3c0.1,0.2,0.1,0.5,0.2,0.7c0,0.1,0.1,0.2,0.1,0.3c0.1,0.2,0.2,0.5,0.3,0.7c0,0.1,0,0.1,0.1,0.1l29.4,62.2
	c1.7,3.5,5.1,5.7,9,5.7h0.1c3.9,0,7.4-2.3,9-5.8l28.4-62.2v-0.1c0.1-0.2,0.2-0.5,0.3-0.7c0-0.1,0-0.1,0.1-0.2
	c0.1-0.3,0.2-0.5,0.2-0.8c0-0.1,0-0.1,0.1-0.2c0.1-0.3,0.1-0.6,0.1-0.9v-0.2c0-0.3,0.1-0.7,0.1-1.1V219
	C456,197.5,438.6,180.1,417.1,180z M398.1,382v-132h37.9v132H398.1z M417.1,200c10.5,0,19,8.5,19,19v11h-37.9v-11
	C398.1,208.5,406.6,200,417.1,200z M417.5,430.4L404,401.8h26.5L417.5,430.4z"/>
</svg>
