<?xml version="1.0" encoding="utf-8"?>
<!-- Generator: Adobe Illustrator 24.0.2, SVG Export Plug-In . SVG Version: 6.00 Build 0)  -->
<svg version="1.1" id="Capa_1" xmlns="http://www.w3.org/2000/svg" xmlns:xlink="http://www.w3.org/1999/xlink" x="0px" y="0px"
	 viewBox="0 0 480 480" style="enable-background:new 0 0 480 480;" xml:space="preserve">
<style type="text/css">
	.st0{fill:#FFFFFF;}
</style>
<path class="st0" d="M413.3,12H66.7C29.9,12,0,39.7,0,73.8v321.4C0,429.3,29.9,457,66.7,457h346.7c36.8,0,66.6-27.7,66.7-61.8V73.8
	C480,39.7,450.1,12,413.3,12z M453.3,395.2c0,20.5-17.9,37.1-40,37.1H66.7c-22.1,0-40-16.6-40-37.1V73.8c0-20.5,17.9-37.1,40-37.1
	h346.7c22.1,0,40,16.6,40,37.1V395.2z"/>
<path class="st0" d="M240,110.9c-73.6,0-133.3,55.3-133.3,123.6S166.4,358.1,240,358.1s133.3-55.3,133.3-123.6
	C373.3,166.3,313.6,111,240,110.9z M240,333.4c-58.9,0-106.7-44.3-106.7-98.9s47.8-98.9,106.7-98.9s106.7,44.3,106.7,98.9
	C346.6,289.1,298.9,333.3,240,333.4z"/>
<path class="st0" d="M386.7,61.4c-22.1,0-40,16.6-40,37.1s17.9,37.1,40,37.1s40-16.6,40-37.1S408.8,61.4,386.7,61.4z M386.7,110.9
	c-7.4,0-13.3-5.5-13.3-12.4s6-12.4,13.3-12.4S400,91.7,400,98.5S394,110.9,386.7,110.9z"/>
</svg>
